# xmcd
# 
# Track frame offsets:
#     150
#     10136
#     18706
#     28105
#     38975
#     50648
#     63328
#     74318
#     83186
#     94094
#     104984
#     116146
#     128026
#     137932
#     148652
#     160427
#     172564
#     182219
#     192799
#     204201
#     214505
#     224789
#     238029
#     249117
#     260202
#     271324
# 
# Disc length: 3744
# 
# Revision: 0
# Processed by: cddbd v1.5.2PL0 Copyright (c) Steve Scherf et al.
# Submitted via: fre:ac v1.0.17
# 
DISCID=8c0e9e1a
DTITLE=George Jones - 101 - White Lightning: The Best of George Jones [CDFour)
DYEAR=2014
DGENRE=Country
TTITLE0=Jambalaya (On The Bayou)
TTITLE1=Roly Poly
TTITLE2=Honky Tonkin'
TTITLE3=Steel Guitar Rag
TTITLE4=I Just Don't Like This Kind Of Living
TTITLE5=San Antonio Rose
TTITLE6=Lonesome Whistle
TTITLE7=Take Me Back To Tulsa
TTITLE8=Take These Chains From My Heart
TTITLE9=Silver Dew On The Bluegrass Tonight
TTITLE10=A House Without Love
TTITLE11=Big Beaver
TTITLE12=Nobody's Lonesome For Me
TTITLE13=Bubbles In My Beer
TTITLE14=The Warm Red Wine
TTITLE15=Faded Love
TTITLE16=Trouble In Mind
TTITLE17=Worried Mind
TTITLE18=You Win Again
TTITLE19=I Heard You Crying In Your Sleep
TTITLE20=You're Gonna Change
TTITLE21=Time Changes Everything
TTITLE22=I Could Never Be Ashamed Of You
TTITLE23=Mansion On The Hill
TTITLE24=Window Shopping
TTITLE25=Why Don't You Love Me (Like You Used To Do)
EXTD=
EXTT0=
EXTT1=
EXTT2=
EXTT3=
EXTT4=
EXTT5=
EXTT6=
EXTT7=
EXTT8=
EXTT9=
EXTT10=
EXTT11=
EXTT12=
EXTT13=
EXTT14=
EXTT15=
EXTT16=
EXTT17=
EXTT18=
EXTT19=
EXTT20=
EXTT21=
EXTT22=
EXTT23=
EXTT24=
EXTT25=
PLAYORDER=
